<svg xmlns="http://www.w3.org/2000/svg" version="1.1" xmlns:xlink="http://www.w3.org/1999/xlink" xmlns:svgjs="http://svgjs.dev/svgjs" width="1000" height="1000" viewBox="0 0 1000 1000"><rect width="1000" height="1000" fill="#ffffff"></rect><g transform="matrix(0.7,0,0,0.7,149.57575757575756,432.7938027347258)"><svg viewBox="0 0 396 76" data-background-color="#ffffff" preserveAspectRatio="xMidYMid meet" height="191" width="1000" xmlns="http://www.w3.org/2000/svg" xmlns:xlink="http://www.w3.org/1999/xlink"><g id="tight-bounds" transform="matrix(1,0,0,1,0.2400000000000091,0.20247563321495932)"><svg viewBox="0 0 395.52 75.5950487335701" height="75.5950487335701" width="395.52"><g><svg viewBox="0 0 509.75383032331814 97.4283617653096" height="75.5950487335701" width="395.52"><g transform="matrix(1,0,0,1,114.23383032331817,13.4651353814574)"><svg viewBox="0 0 395.52 70.4980910023948" height="70.4980910023948" width="395.52"><g id="textblocktransform"><svg viewBox="0 0 395.52 70.4980910023948" height="70.4980910023948" width="395.52" id="textblock"><g><svg viewBox="0 0 395.52 70.4980910023948" height="70.4980910023948" width="395.52"><g transform="matrix(1,0,0,1,0,0)"><svg width="395.52" viewBox="5.35 -40.4 290.0799999999999 52.099999999999994" height="70.4980910023948" data-palette-color="#000000"><g class="wordmark-text-0" data-fill-palette-color="primary" id="text-0"><path d="M18.6-37.9Q31-37.9 31-26.6L31-26.6Q31-21.1 27.9-18.23 24.8-15.35 18.6-15.35L18.6-15.35 10.2-15.35 10.2 0 5.35 0 5.35-37.9 18.6-37.9ZM26.05-26.6Q26.05-30.3 24.2-31.98 22.35-33.65 18.6-33.65L18.6-33.65 10.2-33.65 10.2-19.65 18.6-19.65Q26-19.65 26.05-26.6L26.05-26.6ZM50.55-28.25L51.7-28.25 51.7-23.85 50.55-23.85Q46.25-23.85 42.2-20.4L42.2-20.4 42.2 0 37.5 0 37.5-27.65 42.2-27.65 42.2-24.55Q46.3-28.25 50.55-28.25L50.55-28.25ZM57.7-32.85L57.7-40.4 62.4-40.4 62.4-32.85 57.7-32.85ZM57.7 0L57.7-27.65 62.4-27.65 62.4 0 57.7 0ZM83.09 0.85Q76.64 0.8 73.17-3.15 69.69-7.1 69.69-13.85L69.69-13.85Q69.69-20.6 73.17-24.5 76.64-28.4 83.09-28.45L83.09-28.45Q85.34-28.45 86.97-28.13 88.59-27.8 90.44-27.05L90.44-27.05 90.44-22.5Q88.64-23.35 87.02-23.7 85.39-24.05 83.44-24.05L83.44-24.05Q78.79-24 76.69-21.28 74.59-18.55 74.59-13.9L74.59-13.9Q74.59-9.15 76.69-6.35 78.79-3.55 83.34-3.5L83.34-3.5Q86.89-3.5 91.09-5.65L91.09-5.65 92.59-1.55Q88.04 0.85 83.09 0.85L83.09 0.85ZM101.89-13.45Q101.99-8.85 104.19-6.1 106.39-3.35 111.19-3.35L111.19-3.35Q114.84-3.35 119.19-5.4L119.19-5.4 120.64-1.5Q116.09 0.85 110.79 0.85L110.79 0.85Q106.39 0.85 103.29-1 100.19-2.85 98.59-6.15 96.99-9.45 96.99-13.85L96.99-13.85Q96.99-18.5 98.67-21.78 100.34-25.05 103.19-26.75 106.04-28.45 109.59-28.45L109.59-28.45Q115.04-28.45 118.14-25.05 121.24-21.65 121.24-15.3L121.24-15.3 121.24-13.45 101.89-13.45ZM109.59-24.25Q103.39-24.25 102.19-17.4L102.19-17.4 116.29-17.4Q116.04-20.9 114.39-22.58 112.74-24.25 109.59-24.25L109.59-24.25Z" fill="#000000" data-fill-palette-color="primary"></path><path d="M148.34 0.85Q141.09 0.85 135.39-1.85L135.39-1.85 135.39-6.45Q141.14-3.4 148.34-3.4L148.34-3.4Q152.49-3.4 154.41-5.15 156.34-6.9 156.34-9.75L156.34-9.75Q156.34-12.45 154.56-13.8 152.79-15.15 149.34-16.15L149.34-16.15 145.94-17.1Q143.04-17.95 140.99-19.05 138.94-20.15 137.56-22.23 136.19-24.3 136.19-27.65L136.19-27.65Q136.19-33 139.31-35.8 142.44-38.6 148.19-38.6L148.19-38.6Q151.54-38.6 154.09-37.98 156.64-37.35 159.39-36.1L159.39-36.1 159.39-31.6Q154.29-34.35 148.19-34.35L148.19-34.35Q144.49-34.35 142.79-32.63 141.09-30.9 141.09-27.9L141.09-27.9Q141.14-25.15 142.76-23.85 144.39-22.55 147.84-21.55L147.84-21.55 151.29-20.6Q154.34-19.75 156.46-18.63 158.59-17.5 159.91-15.38 161.24-13.25 161.24-9.85L161.24-9.85Q161.19-4.9 157.76-2.02 154.34 0.85 148.34 0.85L148.34 0.85ZM201.44-27.65L206.33-27.65 197.83 0.45 192.79 0.45 185.94-20.75 179.14 0.45 174.09 0.45 165.54-27.65 170.44-27.65 176.64-5.7 183.24-27.65 188.64-27.65 195.29-5.7 201.44-27.65ZM215.18-13.45Q215.28-8.85 217.48-6.1 219.68-3.35 224.48-3.35L224.48-3.35Q228.13-3.35 232.48-5.4L232.48-5.4 233.93-1.5Q229.38 0.85 224.08 0.85L224.08 0.85Q219.68 0.85 216.58-1 213.48-2.85 211.88-6.15 210.28-9.45 210.28-13.85L210.28-13.85Q210.28-18.5 211.96-21.78 213.63-25.05 216.48-26.75 219.33-28.45 222.88-28.45L222.88-28.45Q228.33-28.45 231.43-25.05 234.53-21.65 234.53-15.3L234.53-15.3 234.53-13.45 215.18-13.45ZM222.88-24.25Q216.68-24.25 215.48-17.4L215.48-17.4 229.58-17.4Q229.33-20.9 227.68-22.58 226.03-24.25 222.88-24.25L222.88-24.25ZM244.43-13.45Q244.53-8.85 246.73-6.1 248.93-3.35 253.73-3.35L253.73-3.35Q257.38-3.35 261.73-5.4L261.73-5.4 263.18-1.5Q258.63 0.85 253.33 0.85L253.33 0.85Q248.93 0.85 245.83-1 242.73-2.85 241.13-6.15 239.53-9.45 239.53-13.85L239.53-13.85Q239.53-18.5 241.21-21.78 242.88-25.05 245.73-26.75 248.58-28.45 252.13-28.45L252.13-28.45Q257.58-28.45 260.68-25.05 263.78-21.65 263.78-15.3L263.78-15.3 263.78-13.45 244.43-13.45ZM252.13-24.25Q245.93-24.25 244.73-17.4L244.73-17.4 258.83-17.4Q258.58-20.9 256.93-22.58 255.28-24.25 252.13-24.25L252.13-24.25ZM283.18-28.45Q288.78-28.45 292.1-24.7 295.43-20.95 295.43-13.8L295.43-13.8Q295.43-6.65 292.1-2.9 288.78 0.85 283.18 0.85L283.18 0.85Q279.13 0.85 275.18-2.5L275.18-2.5 275.18 11.7 270.48 11.7 270.48-27.65 275.18-27.65 275.18-25.05Q279.18-28.45 283.18-28.45L283.18-28.45ZM282.53-3.5Q286.48-3.5 288.53-6.13 290.58-8.75 290.58-13.8L290.58-13.8Q290.58-18.85 288.53-21.45 286.48-24.05 282.53-24.05L282.53-24.05Q278.78-24.05 275.18-20.95L275.18-20.95 275.18-6.6Q278.88-3.5 282.53-3.5L282.53-3.5Z" fill="#000000" data-fill-palette-color="secondary"></path></g></svg></g></svg></g></svg></g></svg></g><g><svg viewBox="0 0 97.59092299183682 97.4283617653096" height="97.4283617653096" width="97.59092299183682"><g><svg xmlns="http://www.w3.org/2000/svg" xmlns:xlink="http://www.w3.org/1999/xlink" version="1.1" x="0" y="0" viewBox="4.950000000000001 5 90.05 89.9" enable-background="new 0 0 100 100" xml:space="preserve" height="97.4283617653096" width="97.59092299183682" class="icon-icon-0" data-fill-palette-color="accent" id="icon-0"><path d="M92.5 5H55c-0.7 0-1.3 0.3-1.8 0.7L5.7 53.2c-1 1-1 2.6 0 3.5l37.5 37.5c0.5 0.5 1.1 0.7 1.8 0.7s1.3-0.2 1.8-0.7l47.5-47.5c0.5-0.5 0.7-1.1 0.7-1.8V7.5C95 6.1 93.9 5 92.5 5zM90 44L45 89 11 55l45-45h34V44z" fill="#000000" data-fill-palette-color="accent"></path><path d="M77.5 30c4.1 0 7.5-3.4 7.5-7.5S81.6 15 77.5 15 70 18.4 70 22.5 73.4 30 77.5 30zM77.5 20c1.4 0 2.5 1.1 2.5 2.5S78.9 25 77.5 25 75 23.9 75 22.5 76.1 20 77.5 20z" fill="#000000" data-fill-palette-color="accent"></path><path d="M52.5 32.5c0-1.4-1.1-2.5-2.5-2.5s-2.5 1.1-2.5 2.5V35h-1.3c-4.8 0-8.8 3.9-8.8 8.8s3.9 8.8 8.8 8.8h1.3V60H40c-3.2 0-3.2 5 0 5h7.5v2.5c0 1.4 1.1 2.5 2.5 2.5s2.5-1.1 2.5-2.5V65h1.3c4.8 0 8.8-3.9 8.8-8.8s-3.9-8.8-8.8-8.8h-1.3V40H60c3.2 0 3.2-5 0-5h-7.5V32.5zM47.5 47.5h-1.3c-2.1 0-3.8-1.7-3.8-3.8s1.7-3.8 3.8-3.8h1.3V47.5zM53.8 52.5c2.1 0 3.8 1.7 3.8 3.8S55.8 60 53.8 60h-1.3v-7.5H53.8z" fill="#000000" data-fill-palette-color="accent"></path></svg></g></svg></g></svg></g><defs></defs></svg><rect width="395.52" height="75.5950487335701" fill="none" stroke="none" visibility="hidden"></rect></g></svg></g></svg>